<svg width="188" height="277" viewBox="0 0 188 277" fill="none" xmlns="http://www.w3.org/2000/svg">
<path fill-rule="evenodd" clip-rule="evenodd" d="M35.2736 1.4456C34.5357 2.26144 33.9316 3.57764 33.9316 4.37077C33.9316 5.4307 33.5553 5.65453 32.5125 5.21579C27.8078 3.23865 25.0118 4.23614 25.0118 7.89199C25.0118 11.8495 31.5484 17.9407 37.7963 19.8059C39.3799 20.2779 39.8551 19.8684 41.2247 16.8491C43.7904 11.1959 43.1968 2.65476 40.0943 0.582734C38.5658 -0.437464 36.6708 -0.0984783 35.2736 1.4456ZM40.3903 3.15269C41.6123 5.43638 41.4169 12.5405 40.0424 15.8306L38.8561 18.6714L34.8779 16.6553C30.1999 14.2848 26.6336 10.3695 26.6336 7.60409C26.6336 4.93277 29.7612 4.95304 32.2863 7.6414C34.5171 10.0167 35.5534 9.64449 35.5534 6.46874C35.5534 5.19309 35.7747 3.57277 36.0456 2.86723C36.7291 1.08635 39.3775 1.2607 40.3903 3.15269ZM74.3721 15.0918C72.5225 17.3244 73.0966 24.1446 75.5341 28.8969C76.7188 31.2073 78.0495 33.3207 78.4914 33.5932C80.7141 34.9678 87.6739 28.9763 90.062 23.6329C91.5094 20.3947 91.5288 19.9892 90.3295 18.1588C88.7256 15.7097 86.1186 15.6262 83.6503 17.9447C82.0569 19.4426 81.7739 19.5034 81.7739 18.3502C81.7739 16.5264 78.8969 13.7488 77.0075 13.7488C76.1707 13.7488 74.9843 14.353 74.3721 15.0918ZM79.9843 18.9982C80.5608 20.758 81.1844 22.3499 81.3701 22.5356C81.5558 22.7213 82.6667 21.7328 83.84 20.3387C86.1681 17.5709 88.6064 17.0429 89.4084 19.1328C90.2452 21.3143 86.6879 27.4898 83.0948 30.093L79.7645 32.5057L78.3438 30.7507C76.9637 29.0453 74.4759 21.8942 74.4759 19.6307C74.4759 17.5482 76.1974 15.271 77.5711 15.5354C78.3309 15.6821 79.4004 17.2165 79.9843 18.9982ZM61.7985 36.5873C58.8039 37.3853 57.0443 39.7947 55.7753 44.8348L54.8533 48.498L52.2982 46.9401C48.8032 44.8089 45.6286 44.9581 43.2203 47.3675C42.1256 48.4623 41.2296 49.7298 41.2296 50.1856C41.2296 50.6762 40.2192 50.8108 38.7474 50.5165C34.9566 49.7582 31.1146 53.8966 28.8481 61.1807C26.4779 68.7981 26.4544 85.0272 28.8011 93.754L30.3613 99.5549L28.0697 100.908C23.8304 103.413 13.1186 114.673 10.3064 119.58C2.01348 134.055 -0.522161 143.461 0.0860036 157.492C0.584699 168.992 2.43433 176.175 8.88899 191.679C18.4737 214.699 22.7187 227.174 23.129 233.521C23.5044 239.34 23.382 239.885 20.3087 246.091C18.5418 249.659 15.8667 254.179 14.3641 256.136C8.2419 264.105 7.95971 265.149 11.9266 265.149C15.1166 265.149 21.1147 261.062 24.8375 256.351C29.2795 250.732 35.9402 237.465 37.9357 230.262C39.83 223.426 41.348 221.498 45.3473 220.85C47.9105 220.434 48.5705 220.796 53.0028 225.057C55.6698 227.622 61.3193 232.494 65.5562 235.883C74.1516 242.76 76.9086 246.863 76.9086 252.777C76.9086 257.652 75.2827 261.066 69.5895 268.144C64.6236 274.317 64.249 275.352 66.4725 276.754C69.7638 278.83 83.5692 267.342 88.1799 258.69C96.1339 243.765 99.3596 223.485 96.116 208.795C95.4284 205.678 94.9557 203.037 95.0667 202.926C95.1778 202.815 98.873 203.639 103.278 204.756C123.372 209.854 137.093 208.993 150.749 201.78C167.989 192.673 173.334 177.014 168.15 150.802C165.698 138.411 165.55 130.615 167.676 125.932C169.599 121.698 174.686 116.708 180.437 113.418C186.074 110.192 188 108.098 188 105.197C188 102.272 184.732 99.1218 180.963 98.4146C173.225 96.9622 162.303 101.005 155.453 107.856C152.484 110.824 151.265 112.88 149.952 117.129C147.435 125.28 147.77 130.037 152.049 146.869C156.804 165.581 157.172 172.942 153.706 180.088C149.679 188.391 140.41 195.459 129.833 198.294C122.594 200.234 108.936 199.946 100.097 197.667L92.8782 195.805L87.9099 186.077C85.1772 180.725 81.5906 174.405 79.9389 172.029C76.5218 167.115 73.665 158.757 73.665 153.676C73.665 142.911 80.0945 137.007 96.549 132.661C104.727 130.501 109.909 128.226 115.97 124.136C119.8 121.55 123.946 119.776 129.466 118.36C133.711 117.27 133.562 116.132 128.858 113.731L125.344 111.938L125.25 102.783C125.173 95.2251 124.849 92.9633 123.392 89.8103L121.628 85.9914L126.433 85.4481C129.076 85.1488 131.238 84.6347 131.238 84.3046C131.238 83.2422 122.005 79.6594 115.375 78.1486C111.503 77.2662 105.708 76.6783 100.83 76.6734C92.9601 76.6645 89.457 77.3595 72.1324 82.3688C70.2625 82.9098 70.2147 82.8181 70.7766 79.764C72.4438 70.6958 78.2336 60.5741 86.8419 51.6769C90.2979 48.1046 93.1263 44.6913 93.1263 44.0912C93.1263 43.4919 92.4857 42.6574 91.7024 42.2381C88.4718 40.5091 80.0029 45.5501 72.1008 53.9063C68.9327 57.2572 67.9029 57.983 68.2832 56.5987C72.2808 42.0394 69.8214 34.4488 61.7985 36.5873ZM67.7983 40.5107C69.0843 42.9647 68.5986 48.0949 66.243 56.9328C64.3674 63.9704 64.5831 63.8504 57.217 61.9414C46.7355 59.2254 41.2117 54.9614 42.7913 50.8068C44.3442 46.7219 49.8842 46.0026 53.0288 49.4776C55.3706 52.0646 56.3696 51.3363 57.3557 46.3262C58.5087 40.4621 60.6811 37.8913 64.1931 38.2343C65.93 38.4047 67.0725 39.1256 67.7983 40.5107ZM91.5045 43.9825C91.5045 44.5542 89.29 47.2004 86.5841 49.862C77.8565 58.4469 71.7684 69.0203 69.523 79.494C68.7121 83.2755 68.6108 83.3753 64.6488 84.3257C62.4237 84.8601 60.4435 85.1375 60.2489 84.942C59.7186 84.4117 62.0783 75.7286 64.4655 69.4258C67.3669 61.7638 72.3579 54.6532 78.1249 49.965C84.985 44.3872 91.5045 41.4725 91.5045 43.9825ZM37.6819 58.0666C34.9403 68.8889 35.3547 81.1889 38.7977 91.1987C40.9571 97.4755 53.4237 116.17 54.6392 114.954C54.94 114.654 53.5518 112.284 51.5538 109.688C46.1371 102.648 41.2012 94.5496 41.9002 93.8505C44.7488 91.0016 87.6942 78.7681 97.3632 78.0504C100.81 77.795 106.464 78.0245 109.932 78.5597C116.548 79.5815 126.074 82.3526 126.754 83.4531C126.974 83.8075 125.335 84.3395 123.114 84.6339C120.892 84.9291 119.075 85.3743 119.075 85.6249C119.075 85.8755 119.83 87.1398 120.752 88.4357L122.428 90.7907L120.549 90.8021C117.816 90.8183 115.02 91.6804 115.02 92.5076C115.02 92.9009 116.803 93.2236 118.98 93.2236C122.258 93.2236 123.013 93.5026 123.364 94.8456C123.74 96.2867 123.389 96.4675 120.215 96.4675C118.25 96.4675 116.642 96.8325 116.642 97.2785C116.642 97.7245 118.284 98.0894 120.291 98.0894C123.32 98.0894 123.94 98.3481 123.94 99.6116C123.94 100.936 123.466 101.08 120.291 100.723C117.986 100.463 116.642 100.63 116.642 101.178C116.642 101.655 118.284 102.291 120.291 102.592C122.662 102.948 123.94 103.546 123.94 104.301C123.94 105.338 121.57 105.329 117.453 104.276C117.23 104.219 116.936 104.537 116.801 104.983C116.666 105.429 118.125 106.182 120.044 106.657C123.312 107.463 123.519 107.68 123.288 110.046C123.062 112.359 123.368 112.72 126.937 114.334C131.229 116.275 131.386 116.053 123.856 118.711C121.804 119.436 117.973 121.35 115.342 122.965C107.796 127.6 105.118 128.752 95.5354 131.489C83.7622 134.853 77.2208 138.629 74.7265 143.504C71.7205 149.377 71.5105 155.668 74.0624 163.372C75.2836 167.057 77.533 171.612 79.2699 173.915C84.0079 180.198 91.2702 195.718 93.6907 204.732C97.9211 220.487 95.9766 238.828 88.3713 254.912C83.8871 264.395 74.8092 273.748 68.5694 275.314C65.3599 276.12 65.7832 274.915 70.9096 268.663C73.4088 265.615 76.0352 262.027 76.748 260.688C78.1249 258.102 78.5571 250.064 77.5175 246.359C76.7586 243.652 71.2267 238.072 63.649 232.369C57.0362 227.392 50.2337 220.503 45.7292 214.227C44.0352 211.866 42.4467 210.138 42.1978 210.387C41.9488 210.635 42.9276 212.515 44.3718 214.565C45.8159 216.614 46.8863 218.386 46.7493 218.502C46.6122 218.618 44.7853 219.462 42.69 220.377C39.1075 221.94 38.801 222.322 37.5684 226.766C34.5487 237.654 27.9716 250.578 22.2848 256.801C18.4088 261.043 12.5234 264.734 11.0695 263.835C10.7208 263.619 12.3109 260.998 14.6033 258.011C16.8957 255.023 20.2049 249.659 21.9572 246.091C24.9559 239.983 25.1197 239.271 24.7499 233.926C24.308 227.543 20.4384 216.093 11.0605 193.42C3.55416 175.273 1.39234 166.817 1.30477 155.263C1.22206 144.405 3.03925 136.983 8.55085 125.662C11.822 118.944 13.3667 116.894 20.6217 109.646C25.1967 105.074 29.4255 101.339 30.0174 101.345C30.6094 101.352 31.9636 103.632 33.0266 106.414C35.0498 111.705 40.7933 121.217 43.1173 123.126C45.3164 124.932 44.7148 123.633 40.409 117.287C33.1661 106.611 29.183 94.0711 28.5157 79.8427C27.8516 65.6913 31.2589 53.9314 36.6051 51.9243C38.9794 51.0322 39.1772 52.1635 37.6819 58.0666ZM42.2067 56.3514C44.4455 59.1979 50.6464 62.1717 58.0725 63.9615C61.5196 64.7919 64.2579 65.7854 64.1582 66.1689C64.0576 66.5533 63.0708 69.3017 61.9639 72.278C60.8579 75.2542 59.7105 79.511 59.4153 81.7387L58.8785 85.7879L51.4727 88.3546C47.4004 89.7657 43.2973 91.4144 42.3551 92.0177C40.7544 93.0428 40.5849 92.9195 39.7635 90.1282C37.9025 83.8043 36.9797 75.6784 37.4062 69.3715C37.8279 63.1262 39.487 54.2972 40.2387 54.2972C40.4325 54.2972 41.318 55.2217 42.2067 56.3514ZM100.965 81.6C99.4099 83.1547 101.22 90.5864 102.9 89.5475C103.378 89.2523 103.331 88.4333 102.777 87.3985C102.285 86.4788 102.093 84.6768 102.349 83.3931C102.79 81.1929 102.172 80.3925 100.965 81.6ZM90.9045 94.9826C91.0196 97.4699 91.5118 99.3116 92.1151 99.5111C92.7687 99.7284 93.0582 99.1729 92.926 97.9548C92.7582 96.4051 93.0882 96.0766 94.7481 96.1407C95.863 96.1845 97.5051 96.5202 98.3971 96.8868C100.01 97.5502 100.01 97.5437 98.4295 95.7449C97.1718 94.3136 97.0632 93.7978 97.9081 93.2755C98.5609 92.8717 98.6622 92.4216 98.17 92.1175C97.7273 91.8434 96.9139 92.1629 96.3625 92.8271C95.3279 94.0735 92.9901 94.4393 92.0519 93.501C91.7583 93.2074 91.9254 92.4775 92.4216 91.8791C93.1141 91.0454 93.0193 90.7907 92.017 90.7907C90.9572 90.7907 90.7463 91.5863 90.9045 94.9826ZM103.398 99.4413C102.273 100.566 102.92 105.284 104.452 107.123C106.37 109.427 106.489 108.949 104.926 105.21C104.281 103.664 103.959 101.612 104.21 100.65C104.673 98.881 104.385 98.4528 103.398 99.4413ZM183.047 100.737C184.114 101.288 185.468 102.472 186.057 103.368C187.812 106.039 185.824 108.559 178.35 113.136C174.573 115.45 170.537 118.663 169.263 120.372C166.357 124.271 166.106 124.51 166.106 123.392C166.106 122.888 167.193 121.238 168.52 119.725C170.921 116.991 171.056 115.638 168.844 116.487C167.413 117.036 163.673 123.285 163.673 125.125C163.673 126.492 164.877 126.979 165.5 125.865C165.687 125.531 165.664 125.804 165.448 126.473C164.235 130.247 164.505 138.322 166.155 147.558C168.621 161.371 169.052 172.674 167.365 179.294C164.914 188.91 158.117 196.523 147.23 201.85C142.43 204.198 133.873 206.421 132.998 205.547C132.774 205.321 133.198 205.137 133.941 205.137C134.684 205.137 135.292 204.772 135.292 204.326C135.292 203.88 134.927 203.515 134.482 203.515C134.036 203.515 133.671 202.929 133.671 202.212C133.671 201.356 133.229 201.078 132.388 201.401C131.682 201.672 130.405 201.893 129.55 201.893C127.604 201.893 127.477 203.486 129.413 203.596C130.331 203.648 130.117 203.888 128.805 204.276C127.69 204.606 126.869 205.299 126.981 205.818C127.646 208.905 96.8126 203.118 94.1399 199.653C92.3795 197.371 92.9803 197.276 99.0052 198.882C106.521 200.885 121.475 201.614 128.212 200.306C135.331 198.924 145.178 193.501 149.862 188.382C154.133 183.714 156.851 177.333 157.579 170.266C158.077 165.438 156.882 159.06 152.342 142.287C150.11 134.044 149.76 131.55 150.052 125.98C150.651 114.546 155.664 107.256 166.512 102.049C171.88 99.4713 179.436 98.872 183.047 100.737ZM156.964 110.862C155.314 112.686 152.321 119.656 152.321 121.675C152.321 122.53 152.686 123.229 153.132 123.229C153.578 123.229 153.943 122.774 153.944 122.216C153.944 120.462 158.699 111.065 159.585 111.065C160.05 111.065 160.43 110.7 160.43 110.254C160.43 108.955 158.362 109.317 156.964 110.862ZM161.817 112.194C159.546 114.298 156.705 119.404 156.257 122.183C155.757 125.289 157.536 123.954 158.984 120.137C159.75 118.119 161.516 115.293 162.906 113.858C165.844 110.827 164.88 109.355 161.817 112.194ZM165.105 115.039C161.685 118.042 158.843 124.4 160.279 125.836C161.262 126.819 161.473 126.451 162.437 122.087C162.724 120.789 164.227 118.459 165.778 116.907C169.468 113.217 168.918 111.691 165.105 115.039ZM65.025 126.914C64.3682 128.625 65.4645 129.549 66.3987 128.072C67.3912 126.502 67.3717 125.662 66.3419 125.662C65.8813 125.662 65.2894 126.225 65.025 126.914ZM68.044 128.828C66.08 131.587 65.9802 132.15 67.4528 132.15C68.378 132.15 69.0835 131.161 71.071 127.082C71.8892 125.403 69.5019 126.781 68.044 128.828ZM70.8731 131.52C69.609 133.324 69.1897 135.394 70.089 135.394C70.8853 135.394 73.6091 131.815 73.6383 130.731C73.6804 129.137 72.2573 129.544 70.8731 131.52ZM73.0496 134.572C72.4957 135.458 72.0433 136.553 72.0433 137.005C72.0433 138.575 73.3236 137.813 74.7524 135.394C75.8301 133.57 75.9225 132.961 75.1222 132.961C74.5351 132.961 73.6026 133.686 73.0496 134.572ZM74.4427 138.685C73.472 140.048 72.9012 141.388 73.1744 141.661C73.854 142.342 77.7195 138.615 77.7195 137.28C77.7195 135.469 76.2988 136.078 74.4427 138.685ZM51.1694 146.148C50.738 146.7 49.9855 148.339 49.4982 149.789C48.1716 153.734 50.2142 153.219 51.9098 149.18C53.2258 146.047 52.7555 144.119 51.1694 146.148ZM53.7788 151.674C53.1715 153.589 53.6872 154.461 54.9603 153.674C56.0242 153.017 56.1134 149.991 55.069 149.991C54.653 149.991 54.0724 150.749 53.7788 151.674ZM57.8365 151.005C56.9973 153.303 57.1059 155.918 58.0555 156.255C58.692 156.481 59.0691 155.86 59.0691 154.586C59.0691 153.47 59.2904 151.98 59.5613 151.274C59.8321 150.567 59.6391 149.991 59.1307 149.991C58.6223 149.991 58.0409 150.448 57.8365 151.005ZM61.9137 150.954C61.1255 153.118 61.1214 157.211 61.9072 157.449C62.8965 157.75 63.9222 150.891 62.9751 150.305C62.6045 150.076 62.1269 150.368 61.9137 150.954ZM66.0743 152.176C65.2813 152.969 65.458 158.101 66.2787 158.101C66.6752 158.101 67.152 156.802 67.3377 155.213C67.6653 152.407 67.1301 151.12 66.0743 152.176ZM69.3179 152.987C68.5345 153.77 68.6967 157.29 69.5157 157.29C70.415 157.29 71.2243 153.326 70.4255 152.832C70.102 152.632 69.6033 152.702 69.3179 152.987ZM158.808 160.486C158.808 164.303 159.145 167.022 159.619 167.022C160.087 167.022 160.43 164.47 160.43 160.987C160.43 157.668 160.065 154.727 159.619 154.452C159.104 154.134 158.808 156.336 158.808 160.486ZM164.484 160.939C164.484 167.846 165.46 170.052 166.41 165.298C167.397 160.365 166.717 154.046 165.2 154.046C164.807 154.046 164.484 157.148 164.484 160.939ZM162.052 160.987C162.052 164.868 162.349 166.933 162.863 166.616C163.309 166.34 163.673 163.582 163.673 160.486C163.673 157.274 163.326 154.857 162.863 154.857C162.394 154.857 162.052 157.441 162.052 160.987ZM72.8541 168.489C72.8541 169.672 75.1416 172.303 75.6914 171.753C76.375 171.069 74.6778 167.833 73.6366 167.833C73.2061 167.833 72.8541 168.128 72.8541 168.489ZM69.6106 170.176C69.6106 171.385 72.6782 174.762 73.2547 174.188C73.8961 173.549 71.3645 169.455 70.3282 169.455C69.9333 169.455 69.6106 169.779 69.6106 170.176ZM66.3703 170.874C66.376 172.061 69.6001 176.753 70.4093 176.753C71.5989 176.753 71.4408 176.065 69.5441 172.997C67.9953 170.49 66.363 169.399 66.3703 170.874ZM63.1235 173.471C63.1235 175.161 65.0688 178.375 66.0922 178.375C67.4488 178.375 67.448 178.355 65.9024 175.256C64.6885 172.822 63.1235 171.817 63.1235 173.471ZM59.0691 175.787C59.0691 177.581 61.166 180.603 61.9007 179.868C62.4229 179.346 60.2059 174.32 59.4534 174.32C59.2418 174.32 59.0691 174.981 59.0691 175.787ZM55.0146 177.121C55.0146 178.797 56.7686 182.43 57.5779 182.43C58.5963 182.43 58.4033 181.008 57.0208 178.335C55.6609 175.706 55.0146 175.314 55.0146 177.121ZM82.5848 184.242C82.5848 184.931 83.3024 186.356 84.1798 187.409C85.7326 189.273 85.7748 189.279 85.8016 187.624C85.8162 186.69 85.0985 185.264 84.2066 184.458C82.8378 183.218 82.5848 183.185 82.5848 184.242ZM152.067 187.949C149.596 190.529 149.388 191.548 151.054 192.931C151.995 193.711 152.815 193.353 155.308 191.068C157.007 189.511 158.123 187.963 157.789 187.628C157.454 187.293 156.269 187.875 155.156 188.921C154.043 189.966 153.132 190.438 153.132 189.97C153.132 189.5 153.679 188.662 154.348 188.107C155.663 187.015 155.97 185.674 154.905 185.674C154.543 185.674 153.266 186.697 152.067 187.949ZM156.628 191.674C153.012 194.351 152.371 195.406 154.36 195.406C155.939 195.406 161.74 190.12 160.763 189.571C160.357 189.344 158.496 190.29 156.628 191.674ZM80.963 190.414C80.963 191.422 84.1376 194.123 84.6825 193.578C85.4537 192.807 83.4281 189.729 82.1509 189.729C81.4974 189.729 80.963 190.037 80.963 190.414ZM79.381 194.595C79.3591 196.401 80.6386 198.082 81.752 197.71C82.4161 197.489 82.1955 196.744 81.0619 195.381C79.921 194.01 79.3907 193.762 79.381 194.595ZM76.9086 197.208C76.9086 198.765 79.0307 200.619 79.655 199.608C79.9072 199.2 79.3923 198.213 78.5109 197.416C77.1616 196.195 76.9086 196.161 76.9086 197.208ZM74.4759 200.578C74.4759 201.906 76.4447 203.709 77.138 203.016C77.7089 202.445 75.9915 199.46 75.0914 199.46C74.7532 199.46 74.4759 199.963 74.4759 200.578ZM70.1936 202.417C69.926 202.85 70.5845 204.278 71.6573 205.59C73.0544 207.3 73.6147 207.599 73.6358 206.646C73.6739 204.904 70.8221 201.4 70.1936 202.417ZM67.6199 205.078C67.019 206.051 69.2538 209.192 70.5472 209.192C71.6102 209.192 71.3337 208.155 69.7087 206.041C68.6651 204.684 68.0415 204.396 67.6199 205.078ZM63.9344 208.159C63.9344 208.556 64.4517 209.59 65.0842 210.455C66.4417 212.312 67.9118 211.348 66.6857 209.404C65.7281 207.886 63.9344 207.074 63.9344 208.159ZM60.8765 210.155C61.3777 211.659 63.1235 211.908 63.1235 210.476C63.1235 209.769 62.5453 209.192 61.8399 209.192C61.1336 209.192 60.6998 209.625 60.8765 210.155ZM74.5019 224.803C74.5392 226.281 76.7975 229.037 77.4421 228.392C78.0933 227.74 76.1253 223.789 75.1498 223.789C74.7792 223.789 74.4873 224.246 74.5019 224.803ZM71.0037 225.099C70.4028 225.701 72.8663 230.277 73.7923 230.277C74.1159 230.277 74.5497 230.003 74.7565 229.669C75.2779 228.825 71.6711 224.433 71.0037 225.099ZM67.1779 228.655C67.1779 229.101 67.9758 230.264 68.9522 231.241C71.1545 233.443 72.0968 231.765 69.9739 229.419C68.4259 227.709 67.1779 227.367 67.1779 228.655ZM65.5562 231.8C65.5562 232.837 67.9402 234.651 68.5297 234.062C69.1184 233.472 67.3044 231.088 66.2681 231.088C65.8765 231.088 65.5562 231.408 65.5562 231.8ZM82.4477 237.983C81.8217 238.609 83.5286 243.253 84.3841 243.253C85.3815 243.253 85.1237 240.464 83.9819 238.902C83.4119 238.122 82.7218 237.709 82.4477 237.983ZM79.6413 241.023C79.9097 242.026 80.1351 243.12 80.1408 243.455C80.1529 244.094 82.5848 244.334 82.5848 243.696C82.5848 243.494 82.1615 242.4 81.6433 241.263C80.4805 238.71 78.9731 238.53 79.6413 241.023ZM76.4164 242.103C76.6872 242.808 76.9086 243.538 76.9086 243.725C76.9086 243.911 77.4559 244.064 78.1249 244.064C79.591 244.064 79.6923 243.117 78.3682 241.793C76.9824 240.407 75.8358 240.589 76.4164 242.103Z" fill="#14C4BB"/>
</svg>
