<svg width="425" height="874" viewBox="0 0 425 874" fill="none" xmlns="http://www.w3.org/2000/svg">
<path fill-rule="evenodd" clip-rule="evenodd" d="M111.45 4.56644C109.118 7.14353 107.209 11.3012 107.209 13.8066C107.209 17.1547 106.021 17.8618 102.726 16.4759C87.8607 10.2304 79.0268 13.3813 79.0268 24.9296C79.0268 37.4308 99.6795 56.6719 119.42 62.5638C124.424 64.0547 125.925 62.7611 130.253 53.2238C138.359 35.366 136.483 8.38596 126.681 1.84077C121.852 -1.38188 115.864 -0.311078 111.45 4.56644ZM127.616 9.95886C131.477 17.1727 130.86 39.6133 126.517 50.0063L122.769 58.98L110.199 52.6115C95.4188 45.1236 84.1509 32.7556 84.1509 24.0202C84.1509 15.5818 94.0327 15.6459 102.011 24.138C109.059 31.6413 112.333 30.4654 112.333 20.4337C112.333 16.4042 113.033 11.2858 113.889 9.05714C116.048 3.4316 124.416 3.98237 127.616 9.95886ZM234.984 47.6725C229.14 54.7249 230.954 76.269 238.656 91.2807C242.399 98.5791 246.603 105.255 247.999 106.116C255.022 110.458 277.012 91.5318 284.557 74.6526C289.131 64.4236 289.192 63.1428 285.403 57.361C280.335 49.6246 272.098 49.3607 264.299 56.6847C259.265 61.4162 258.371 61.6083 258.371 57.9655C258.371 52.2042 249.281 43.4303 243.311 43.4303C240.667 43.4303 236.919 45.3388 234.984 47.6725ZM252.716 60.0123C254.538 65.5713 256.508 70.5999 257.095 71.1866C257.681 71.7732 261.191 68.6505 264.899 64.2469C272.254 55.5037 279.959 53.836 282.492 60.4376C285.136 67.3286 273.897 86.8361 262.544 95.0592L252.022 102.68L247.533 97.1368C243.173 91.7495 235.312 69.1602 235.312 62.0105C235.312 55.432 240.751 48.2387 245.092 49.0738C247.492 49.5375 250.872 54.3842 252.716 60.0123ZM195.257 115.574C185.795 118.094 180.236 125.705 176.226 141.626L173.313 153.198L165.24 148.276C154.197 141.544 144.167 142.016 136.558 149.626C133.099 153.085 130.268 157.089 130.268 158.528C130.268 160.078 127.076 160.504 122.425 159.574C110.448 157.178 98.3088 170.251 91.1479 193.26C83.659 217.323 83.5847 268.588 90.9993 296.154L95.9287 314.478L88.6883 318.754C75.2939 326.664 41.4491 362.234 32.5639 377.735C6.36174 423.459 -1.64981 453.17 0.271735 497.493C1.8474 533.818 7.69145 556.51 28.0854 605.485C58.3689 678.199 71.7813 717.606 73.0777 737.657C74.2639 756.037 73.877 757.759 64.1668 777.363C58.5841 788.635 50.1319 802.911 45.3844 809.093C26.0409 834.267 25.1493 837.564 37.6829 837.564C47.762 837.564 66.7135 824.655 78.4759 809.774C92.5109 792.024 113.556 750.114 119.861 727.361C125.846 705.768 130.642 699.679 143.278 697.63C151.377 696.316 153.462 697.461 167.466 710.92C175.893 719.023 193.743 734.411 207.13 745.119C234.287 766.842 242.998 779.802 242.998 798.482C242.998 813.883 237.861 824.666 219.873 847.024C204.183 866.524 203 869.793 210.025 874.222C220.424 880.78 264.043 844.491 278.611 817.162C303.742 770.016 313.934 705.955 303.686 659.552C301.513 649.705 300.019 641.362 300.37 641.011C300.721 640.662 312.397 643.263 326.314 646.793C389.804 662.896 433.154 660.177 476.304 637.391C530.774 608.623 547.66 559.159 531.281 476.361C523.536 437.218 523.067 412.592 529.785 397.798C535.859 384.424 551.934 368.664 570.104 358.268C587.915 348.078 594 341.466 594 332.3C594 323.06 583.675 313.11 571.766 310.877C547.317 306.289 512.808 319.059 491.164 340.7C481.785 350.076 477.934 356.57 473.786 369.993C465.833 395.741 466.891 410.766 480.409 463.937C495.435 523.046 496.596 546.296 485.646 568.87C472.922 595.097 443.635 617.425 410.216 626.381C387.345 632.508 344.192 631.599 316.265 624.401L293.455 618.519L277.758 587.788C269.124 570.884 257.792 550.918 252.573 543.414C241.776 527.89 232.75 501.489 232.75 485.44C232.75 451.433 253.065 432.784 305.054 419.056C330.892 412.234 347.266 405.045 366.415 392.127C378.518 383.957 391.618 378.352 409.058 373.88C422.47 370.439 421.999 366.842 407.136 359.26L396.033 353.593L395.735 324.677C395.492 300.801 394.47 293.657 389.866 283.697L384.293 271.634L399.473 269.917C407.826 268.972 414.656 267.348 414.656 266.305C414.656 262.949 385.485 251.632 364.537 246.859C352.303 244.072 333.992 242.215 318.579 242.199C293.714 242.171 282.646 244.367 227.908 260.19C222 261.899 221.849 261.61 223.624 251.962C228.892 223.317 247.185 191.344 274.384 163.239C285.303 151.955 294.239 141.173 294.239 139.277C294.239 137.384 292.215 134.748 289.741 133.424C279.533 127.962 252.775 143.886 227.808 170.282C217.798 180.867 214.544 183.159 215.746 178.787C228.377 132.796 220.606 108.818 195.257 115.574ZM214.214 127.967C218.277 135.719 216.742 151.924 209.3 179.842C203.374 202.073 204.055 201.693 180.781 195.663C147.664 187.084 130.212 173.614 135.202 160.491C140.109 147.587 157.613 145.315 167.548 156.292C174.948 164.464 178.104 162.164 181.219 146.337C184.863 127.813 191.726 119.693 202.823 120.776C208.311 121.314 211.921 123.592 214.214 127.967ZM289.115 138.934C289.115 140.74 282.118 149.099 273.569 157.506C245.993 184.625 226.757 218.024 219.663 251.109C217.101 263.054 216.781 263.369 204.263 266.372C197.232 268.06 190.976 268.936 190.361 268.319C188.685 266.643 196.141 239.215 203.684 219.305C212.851 195.102 228.62 172.641 246.841 157.832C268.516 140.212 289.115 131.005 289.115 138.934ZM119.059 183.423C110.397 217.609 111.706 256.463 122.584 288.082C129.407 307.91 168.796 366.963 172.637 363.123C173.587 362.175 169.201 354.687 162.888 346.487C145.773 324.249 130.178 298.667 132.387 296.459C141.387 287.46 277.076 248.816 307.626 246.549C318.518 245.742 336.38 246.467 347.338 248.158C368.242 251.386 398.341 260.139 400.488 263.615C401.182 264.735 396.004 266.415 388.987 267.345C381.967 268.278 376.225 269.684 376.225 270.476C376.225 271.267 378.611 275.261 381.524 279.355L386.822 286.794L380.883 286.83C372.249 286.881 363.415 289.604 363.415 292.217C363.415 293.459 369.046 294.479 375.925 294.479C386.284 294.479 388.669 295.36 389.779 299.602C390.967 304.155 389.855 304.726 379.828 304.726C373.62 304.726 368.539 305.879 368.539 307.288C368.539 308.697 373.727 309.849 380.068 309.849C389.638 309.849 391.598 310.667 391.598 314.658C391.598 318.841 390.099 319.297 380.068 318.167C372.784 317.347 368.539 317.875 368.539 319.607C368.539 321.113 373.727 323.122 380.068 324.072C387.56 325.197 391.598 327.087 391.598 329.47C391.598 332.746 384.109 332.718 371.101 329.39C370.397 329.211 369.469 330.215 369.041 331.624C368.613 333.033 373.225 335.413 379.289 336.911C389.615 339.46 390.268 340.144 389.538 347.617C388.823 354.925 389.791 356.065 401.067 361.163C414.628 367.293 415.122 366.594 391.334 374.989C384.849 377.279 372.743 383.327 364.432 388.428C340.59 403.068 332.13 406.708 301.851 415.354C264.653 425.98 243.985 437.907 236.104 453.306C226.606 471.86 225.943 491.732 234.006 516.068C237.864 527.708 244.971 542.095 250.459 549.37C265.429 569.219 288.375 618.242 296.023 646.716C309.389 696.485 303.245 754.421 279.216 805.227C265.047 835.182 236.365 864.728 216.65 869.675C206.51 872.221 207.847 868.415 224.044 848.664C231.941 839.037 240.239 827.701 242.491 823.474C246.841 815.303 248.207 789.913 244.922 778.209C242.524 769.66 225.046 752.033 201.104 734.017C180.21 718.295 158.717 696.536 144.485 676.708C139.133 669.251 134.114 663.792 133.327 664.578C132.54 665.362 135.633 671.303 140.196 677.776C144.759 684.25 148.141 689.847 147.708 690.214C147.275 690.58 141.503 693.247 134.882 696.136C123.563 701.075 122.595 702.282 118.7 716.32C109.159 750.711 88.3783 791.537 70.4106 811.193C58.164 824.594 39.5685 836.252 34.9748 833.414C33.8731 832.732 38.8973 824.453 46.1402 815.016C53.3832 805.578 63.8389 788.635 69.3755 777.363C78.85 758.069 79.3675 755.819 78.1992 738.935C76.8029 718.772 64.5768 682.605 34.9466 610.985C11.2296 553.661 4.39921 526.948 4.12251 490.451C3.86118 456.152 9.60274 432.707 27.017 396.948C37.3524 375.727 42.2331 369.251 65.1558 346.354C79.6109 331.913 92.972 320.114 94.8423 320.135C96.7126 320.155 100.991 327.359 104.35 336.145C110.742 352.858 128.89 382.907 136.232 388.935C143.181 394.64 141.28 390.538 127.675 370.493C104.791 336.768 92.206 297.156 90.0974 252.211C87.9991 207.509 98.7649 170.361 115.656 164.021C123.158 161.203 123.783 164.777 119.059 183.423ZM133.355 178.005C140.429 186.997 160.021 196.391 183.484 202.044C194.376 204.668 203.028 207.806 202.713 209.017C202.395 210.232 199.277 218.913 195.78 228.315C192.285 237.716 188.66 251.163 187.727 258.2L186.031 270.991L162.632 279.098C149.765 283.556 136.801 288.764 133.824 290.67C128.767 293.908 128.231 293.518 125.636 284.701C119.756 264.725 116.84 239.056 118.188 219.134C119.52 199.406 124.762 171.516 127.137 171.516C127.749 171.516 130.547 174.437 133.355 178.005ZM319.007 257.762C314.093 262.673 319.811 286.148 325.12 282.867C326.629 281.934 326.483 279.347 324.733 276.078C323.178 273.173 322.571 267.481 323.38 263.426C324.771 256.476 322.819 253.947 319.007 257.762ZM287.219 300.035C287.583 307.892 289.138 313.71 291.045 314.34C293.11 315.027 294.024 313.272 293.607 309.424C293.076 304.529 294.119 303.491 299.364 303.694C302.886 303.832 308.075 304.892 310.893 306.05C315.989 308.146 315.989 308.125 310.995 302.443C307.022 297.922 306.678 296.293 309.348 294.643C311.41 293.367 311.731 291.945 310.175 290.985C308.777 290.119 306.207 291.128 304.465 293.226C301.195 297.164 293.809 298.319 290.845 295.355C289.917 294.428 290.445 292.122 292.013 290.232C294.201 287.598 293.901 286.794 290.735 286.794C287.386 286.794 286.72 289.307 287.219 300.035ZM326.693 314.12C323.139 317.673 325.184 332.577 330.024 338.384C336.086 345.662 336.46 344.153 331.522 332.341C329.483 327.459 328.466 320.977 329.26 317.939C330.723 312.35 329.814 310.997 326.693 314.12ZM578.351 318.213C581.723 319.953 586.001 323.693 587.861 326.524C593.406 334.962 587.126 342.921 563.509 357.38C551.575 364.688 538.824 374.838 534.799 380.235C525.616 392.552 524.824 393.308 524.824 389.778C524.824 388.184 528.258 382.971 532.452 378.194C540.038 369.555 540.463 365.282 533.474 367.965C528.955 369.699 517.138 389.439 517.138 395.252C517.138 399.568 520.94 401.108 522.911 397.588C523.5 396.533 523.428 397.396 522.747 399.51C518.911 411.429 519.764 436.936 524.978 466.114C532.772 509.746 534.132 545.451 528.801 566.362C521.058 596.737 499.583 620.786 465.185 637.611C450.018 645.03 422.98 652.052 420.218 649.29C419.509 648.578 420.849 647.997 423.195 647.997C425.545 647.997 427.466 646.844 427.466 645.435C427.466 644.026 426.313 642.873 424.904 642.873C423.495 642.873 422.342 641.021 422.342 638.756C422.342 636.054 420.948 635.175 418.289 636.195C416.06 637.05 412.025 637.75 409.322 637.75C403.176 637.75 402.773 642.781 408.891 643.129C411.792 643.293 411.113 644.051 406.97 645.276C403.447 646.319 400.852 648.509 401.205 650.146C403.306 659.898 305.887 641.618 297.442 630.674C291.88 623.466 293.778 623.163 312.814 628.238C336.56 634.565 383.809 636.868 405.095 632.736C427.589 628.371 458.7 611.238 473.499 595.069C486.993 580.324 495.581 560.168 497.882 537.843C499.455 522.593 495.681 502.445 481.336 449.463C474.283 423.423 473.179 415.546 474.101 397.952C475.994 361.832 491.833 338.804 526.106 322.356C543.066 314.215 566.942 312.321 578.351 318.213ZM495.94 350.196C490.726 355.958 481.27 377.973 481.27 384.352C481.27 387.052 482.422 389.263 483.832 389.263C485.241 389.263 486.394 387.823 486.396 386.061C486.399 380.522 501.42 350.837 504.22 350.837C505.688 350.837 506.89 349.684 506.89 348.275C506.89 344.171 500.357 345.316 495.94 350.196ZM511.274 354.403C504.097 361.05 495.12 377.179 493.706 385.958C492.125 395.767 497.746 391.55 502.322 379.495C504.743 373.119 510.321 364.194 514.715 359.659C523.997 350.084 520.951 345.434 511.274 354.403ZM521.663 363.389C510.856 372.878 501.876 392.959 506.414 397.496C509.519 400.601 510.187 399.438 513.231 385.653C514.138 381.554 518.888 374.192 523.789 369.292C535.447 357.636 533.71 352.815 521.663 363.389ZM205.451 400.901C203.376 406.306 206.84 409.226 209.792 404.559C212.928 399.599 212.866 396.948 209.612 396.948C208.157 396.948 206.287 398.726 205.451 400.901ZM214.99 406.949C208.785 415.664 208.47 417.442 213.122 417.442C216.046 417.442 218.275 414.316 224.554 401.431C227.139 396.128 219.597 400.48 214.99 406.949ZM223.929 415.451C219.935 421.151 218.61 427.689 221.451 427.689C223.967 427.689 232.573 416.384 232.666 412.959C232.799 407.925 228.302 409.208 223.929 415.451ZM230.806 425.091C229.056 427.891 227.626 431.349 227.626 432.776C227.626 437.736 231.672 435.33 236.186 427.689C239.591 421.927 239.883 420.003 237.354 420.003C235.499 420.003 232.553 422.294 230.806 425.091ZM235.207 438.084C232.14 442.39 230.337 446.622 231.2 447.485C233.347 449.635 245.56 437.864 245.56 433.647C245.56 427.924 241.072 429.848 235.207 438.084ZM161.674 461.66C160.311 463.404 157.933 468.581 156.393 473.159C152.202 485.622 158.655 483.995 164.013 471.238C168.171 461.339 166.685 455.25 161.674 461.66ZM169.918 479.115C167.999 485.163 169.629 487.92 173.651 485.432C177.013 483.357 177.294 473.799 173.994 473.799C172.68 473.799 170.846 476.192 169.918 479.115ZM182.739 477.002C180.087 484.259 180.43 492.521 183.431 493.584C185.442 494.298 186.633 492.336 186.633 488.312C186.633 484.787 187.333 480.081 188.188 477.852C189.044 475.618 188.434 473.799 186.828 473.799C185.221 473.799 183.384 475.242 182.739 477.002ZM195.621 476.84C193.13 483.677 193.118 496.604 195.6 497.357C198.726 498.307 201.967 476.64 198.975 474.791C197.804 474.066 196.295 474.988 195.621 476.84ZM208.767 480.701C206.261 483.206 206.82 499.417 209.412 499.417C210.665 499.417 212.172 495.313 212.758 490.294C213.793 481.431 212.103 477.365 208.767 480.701ZM219.015 483.263C216.54 485.737 217.052 496.855 219.64 496.855C222.481 496.855 225.038 484.333 222.515 482.773C221.492 482.14 219.917 482.361 219.015 483.263ZM501.766 506.951C501.766 519.006 502.832 527.596 504.328 527.596C505.806 527.596 506.89 519.534 506.89 508.534C506.89 498.049 505.737 488.76 504.328 487.889C502.701 486.885 501.766 493.84 501.766 506.951ZM519.7 508.383C519.7 530.198 522.783 537.169 525.785 522.152C528.903 506.569 526.756 486.608 521.963 486.608C520.72 486.608 519.7 496.407 519.7 508.383ZM512.014 508.534C512.014 520.792 512.954 527.316 514.576 526.315C515.985 525.444 517.138 516.731 517.138 506.951C517.138 496.804 516.039 489.17 514.576 489.17C513.095 489.17 512.014 497.331 512.014 508.534ZM230.188 532.23C230.188 535.967 237.416 544.278 239.153 542.541C241.313 540.381 235.95 530.157 232.66 530.157C231.3 530.157 230.188 531.09 230.188 532.23ZM219.94 537.558C219.94 541.378 229.632 552.047 231.454 550.234C233.48 548.215 225.482 535.281 222.207 535.281C220.96 535.281 219.94 536.306 219.94 537.558ZM209.702 539.764C209.72 543.514 219.907 558.336 222.463 558.336C226.222 558.336 225.722 556.161 219.73 546.47C214.836 538.552 209.679 535.104 209.702 539.764ZM199.443 547.969C199.443 553.308 205.59 563.46 208.823 563.46C213.109 563.46 213.107 563.396 208.224 553.607C204.388 545.917 199.443 542.743 199.443 547.969ZM186.633 555.285C186.633 560.949 193.259 570.497 195.58 568.176C197.23 566.526 190.225 550.651 187.848 550.651C187.179 550.651 186.633 552.736 186.633 555.285ZM173.823 559.497C173.823 564.792 179.365 576.268 181.922 576.268C185.139 576.268 184.53 571.778 180.161 563.332C175.865 555.027 173.823 553.789 173.823 559.497ZM260.933 581.991C260.933 584.169 263.2 588.67 265.972 591.995C270.879 597.884 271.012 597.902 271.096 592.676C271.143 589.725 268.875 585.222 266.057 582.673C261.732 578.758 260.933 578.653 260.933 581.991ZM480.468 593.701C472.658 601.852 472.003 605.07 477.268 609.438C480.24 611.904 482.83 610.772 490.708 603.553C496.076 598.635 499.601 593.744 498.545 592.686C497.487 591.631 493.744 593.468 490.227 596.772C486.709 600.074 483.832 601.565 483.832 600.085C483.832 598.601 485.561 595.955 487.675 594.2C491.828 590.752 492.799 586.515 489.435 586.515C488.29 586.515 484.254 589.748 480.468 593.701ZM494.877 605.467C483.452 613.926 481.428 617.256 487.713 617.256C492.701 617.256 511.03 600.559 507.943 598.827C506.659 598.107 500.78 601.097 494.877 605.467ZM255.809 601.489C255.809 604.673 265.839 613.203 267.561 611.482C269.997 609.048 263.597 599.324 259.562 599.324C257.497 599.324 255.809 600.297 255.809 601.489ZM250.81 614.694C250.741 620.399 254.784 625.71 258.302 624.536C260.4 623.837 259.703 621.485 256.121 617.179C252.516 612.847 250.841 612.063 250.81 614.694ZM242.998 622.951C242.998 627.869 249.703 633.725 251.676 630.531C252.473 629.242 250.846 626.125 248.061 623.606C243.798 619.748 242.998 619.643 242.998 622.951ZM235.312 633.595C235.312 637.791 241.533 643.485 243.723 641.295C245.527 639.492 240.101 630.065 237.257 630.065C236.188 630.065 235.312 631.653 235.312 633.595ZM221.782 639.405C220.936 640.772 223.017 645.281 226.406 649.426C230.821 654.829 232.591 655.774 232.658 652.764C232.778 647.261 223.768 636.192 221.782 639.405ZM213.65 647.81C211.752 650.884 218.813 660.805 222.899 660.805C226.258 660.805 225.384 657.529 220.25 650.85C216.952 646.565 214.982 645.655 213.65 647.81ZM202.005 657.542C202.005 658.797 203.64 662.063 205.638 664.794C209.927 670.66 214.572 667.614 210.699 661.476C207.673 656.678 202.005 654.114 202.005 657.542ZM192.344 663.848C193.927 668.598 199.443 669.384 199.443 664.86C199.443 662.629 197.617 660.805 195.388 660.805C193.156 660.805 191.785 662.173 192.344 663.848ZM235.394 710.118C235.512 714.786 242.647 723.493 244.684 721.454C246.742 719.397 240.523 706.916 237.441 706.916C236.27 706.916 235.348 708.358 235.394 710.118ZM224.341 711.053C222.443 712.954 230.226 727.41 233.152 727.41C234.175 727.41 235.545 726.544 236.199 725.489C237.846 722.822 226.45 708.948 224.341 711.053ZM212.254 722.286C212.254 723.695 214.775 727.369 217.859 730.453C224.818 737.411 227.795 732.111 221.088 724.7C216.197 719.297 212.254 718.218 212.254 722.286ZM207.13 732.221C207.13 735.495 214.662 741.225 216.525 739.365C218.385 737.503 212.653 729.972 209.379 729.972C208.142 729.972 207.13 730.983 207.13 732.221ZM260.5 751.751C258.522 753.729 263.915 768.397 266.618 768.397C269.769 768.397 268.955 759.588 265.347 754.654C263.546 752.192 261.366 750.885 260.5 751.751ZM251.632 761.353C252.481 764.524 253.193 767.98 253.211 769.038C253.249 771.054 260.933 771.812 260.933 769.799C260.933 769.161 259.595 765.702 257.958 762.114C254.284 754.049 249.521 753.478 251.632 761.353ZM241.443 764.765C242.299 766.994 242.998 769.299 242.998 769.888C242.998 770.478 244.728 770.959 246.841 770.959C251.474 770.959 251.794 767.97 247.61 763.786C243.232 759.408 239.609 759.982 241.443 764.765Z" fill="#FFDC9E"/>
</svg>
